<?xml version="1.0" encoding="UTF-8"?>
<svg xmlns="http://www.w3.org/2000/svg" version="1.1" viewBox="0 0 964.1 1080">
  <defs>
    <style>
      .cls-1 {
        fill: none;
      }

      .cls-2 {
        fill: #0096c7;
      }

      .cls-3 {
        fill: #2a9d8f;
      }

      .cls-4 {
        fill: #19495f;
      }
    </style>
  </defs>
  <!-- Generator: Adobe Illustrator 28.6.0, SVG Export Plug-In . SVG Version: 1.2.0 Build 709)  -->
  <g>
    <g id="Layer_1">
      <path class="cls-3" d="M236.1,163.6v295.7h-48.8c-8.3,0-15-6.7-15-15v-117.2c0-7.5-8.2-12.1-14.6-8.3-9,5.4-18.1,10.8-27.1,16.3-7.4,4.4-11.9,12.4-11.9,21v94.2c0,9-7.3,16.4-16.4,16.4H28.5c7.1-63,14.3-125.9,21.5-188.9,62-38.1,124.1-76.2,186.1-114.3Z"/>
      <path class="cls-2" d="M236.3,162.6c-1.1,48.7-1.7,98.3-1.8,148.7,0,50.1.4,99.4,1.3,147.7,82-46.1,164-92.1,246-138,0,0,.4-.2.4-.2-.4-103.1-.7-206.1-1.1-309.1-81.6,50.3-163.3,100.6-244.9,150.9ZM437.9,161.1c0,.5,0,1.1,0,1.6-.5,6.5-4.2,12.4-9.9,15.6-7.4,4.2-14.8,8.4-22.1,12.5-4.5,2.5-9.5,2.1-13.4-.3-3.5-2.2-6-6-6.1-10.8-.1-7.1-.3-14.2-.4-21.3-.2-7.8,4-15,10.8-18.7,8-4.4,15.9-8.9,23.9-13.3,7.8-4.3,17.3,1.3,17.3,10.2v24.4ZM385.9,283c-.2-7.8,4-15,10.8-18.7,8-4.4,15.9-8.9,23.9-13.3,7.8-4.3,17.3,1.3,17.3,10.2v24.4c0,7.1-3.8,13.7-10,17.2-7.4,4.2-14.8,8.4-22.1,12.6-8.6,4.9-19.2-1.2-19.4-11.1-.1-7.1-.3-14.2-.4-21.3ZM325,349.7c-1.6,4.1-4.5,7.6-8.5,9.9-9.4,5.3-18.8,10.7-28.2,16.1-5.9,3.4-13.3-.8-13.4-7.6-.2-9.4-.4-18.8-.6-28.2,0-1.3,0-2.6.3-3.9,1-6.2,4.8-11.6,10.4-14.7,8.5-4.7,17-9.4,25.5-14.2,7.1-3.9,15.8,1.2,15.8,9.3v26.4c0,2.4-.4,4.7-1.3,6.8ZM288.7,254.3c-7.1,2.2-14.8-2.9-15-10.8-.2-8.1-.3-16.2-.5-24.2-.2-7.5,3.8-14.4,10.3-18,9.7-5.4,19.4-10.8,29.1-16.2,5.6-3.1,12.6,1,12.6,7.4v30c0,4.3-1.4,8.5-4,11.8-1.6,2-3.5,3.8-5.8,5.1-8.1,4.6-16.3,9.3-24.4,13.9-.7.4-1.5.8-2.3,1Z"/>
      <path class="cls-2" d="M726.8,163.6v295.7s48.8,0,48.8,0c8.3,0,15-6.7,15-15v-117.2c0-7.5,8.2-12.1,14.6-8.3,9,5.4,18.1,10.8,27.1,16.3,7.4,4.4,11.9,12.4,11.9,21v94.2c0,9,7.3,16.4,16.4,16.4h73.8c-7.1-63-14.3-125.9-21.5-188.9-62-38.1-124.1-76.2-186.1-114.3Z"/>
      <path class="cls-3" d="M481.7,11.7c-.3,103-.7,206-1.1,309.1,0,0,.4.2.4.2,82,45.9,164,91.9,246,138,.9-48.3,1.4-97.6,1.3-147.7,0-50.5-.7-100.1-1.8-148.7-81.6-50.3-163.3-100.6-244.9-150.9ZM524.9,136.7c0-8.9,9.6-14.5,17.3-10.2,8,4.4,16,8.8,23.9,13.3,6.8,3.8,10.9,11,10.8,18.7-.1,7.1-.3,14.2-.4,21.3,0,4.7-2.6,8.6-6.1,10.8-3.8,2.4-8.9,2.8-13.4.3-7.4-4.2-14.7-8.4-22.1-12.5-5.7-3.3-9.4-9.1-9.9-15.6,0-.5,0-1.1,0-1.6v-24.4ZM576.5,304.3c-.2,9.9-10.9,15.9-19.4,11.1-7.4-4.2-14.7-8.4-22.1-12.6-6.2-3.5-10-10.1-10-17.2v-24.4c0-8.9,9.6-14.5,17.3-10.2,8,4.4,16,8.8,23.9,13.3,6.8,3.8,10.9,11,10.8,18.7-.1,7.1-.3,14.2-.4,21.3ZM636.6,342.8v-26.4c0-8.1,8.7-13.3,15.8-9.3,8.5,4.7,17,9.4,25.5,14.2,5.6,3.1,9.3,8.5,10.4,14.7.2,1.3.3,2.6.3,3.9-.2,9.4-.4,18.8-.6,28.2-.1,6.8-7.5,11-13.4,7.6-9.4-5.4-18.8-10.7-28.2-16.1-4-2.3-6.9-5.8-8.5-9.9-.8-2.2-1.3-4.5-1.3-6.8ZM671.9,253.3c-8.1-4.6-16.3-9.2-24.4-13.9-2.3-1.3-4.3-3-5.8-5.1-2.6-3.3-4-7.5-4-11.8v-30c0-6.5,6.9-10.5,12.6-7.4,9.7,5.4,19.4,10.8,29.1,16.2,6.5,3.6,10.5,10.5,10.3,18-.2,8.1-.3,16.2-.5,24.2-.2,7.9-7.9,13.1-15,10.8-.8-.2-1.6-.6-2.3-1Z"/>
      <g id="GhmHB7">
        <path class="cls-4" d="M458.9,444.4c19.5-13.5,38.5-14,57.4.2,24.6,18.4,48.3,37.9,72.5,56.8,24.2,19,47.8,39.2,78.9,45.5,14.7,3,30.1,3.5,45.3,3.6,70.6.4,141.2.3,211.9.4h8.6v-55.5c-3.8,0-6.7,0-9.8,0-29.1-.6-58.1-1.4-87.1-1.8-51.9-.6-103.8-.7-155.7-1.8-7.6-.2-16.4-3.2-22.5-7.8-29.5-22.1-57.9-45.7-87.5-67.6-16.8-12.3-34.1-26.1-53.4-32.5-40-13.4-76-2.3-107.9,25.9-31.5,27.9-64.4,54.2-97,80.9-3.3,2.7-8.7,4.2-13.1,4.3-13.5.2-27-.9-40.4-.9-70.7-.1-141.5,0-212.5,0v56.9h67.5c65.8-.1,131.5-.3,197.3-.2,3.1,0,7.5,2.9,9,5.7,19.1,34.3,59.8,44.9,93.1,23.7,17.9-11.4,35.6-23.3,54.1-35.5,11.7,10.7,23.8,21.9,35.9,33.1,47.7,44.2,95.4,88.3,143.1,132.5,7.4,6.8,14.2,14.1,21.2,21.3,5.3,5.5,4.9,10-2.7,13.4-10.9,4.9-21.3,10.7-32.4,15.3-2.3,1-7.1-1.2-9.4-3.4-15.6-15-30.6-30.9-46.5-45.7-10.9-10.1-22.4-19.6-34.7-27.9-14.1-9.5-45.8,3.6-49,20.3-.9,4.6,3.5,11.7,7.5,15.6,15.4,14.9,31.8,28.7,47.5,43.3,10.4,9.6,20.2,19.9,30,30.1,2.5,2.6,4.2,6.1,6.7,9.9-6.5,5.7-12,10.5-16.2,14.1,0,0-7.3,6.3-20.4,16.1-8.9,6.7-11,7.8-13.8,7.5-3.8-.4-8-2.9-14.5-7.8-1.1-.8-2.2-1.6-3.3-2.4,8.7-36.2,6-64.3-50.4-71.6.6-8.9.8-32.2-14.2-54.5-21.7-32.2-61.1-41.5-75.7-37.8-7.4,1.9-15.4,2-22.5,4.8-8.2,3.3-12.5,2.1-17.3-4-13.9-17.5-31.2-24-53.2-16.4-2.6.9-8.7-2-10.1-4.8-10.1-19.2-25.9-29.4-47.4-29.5-58.1-.4-116.3-.3-174.4-.4h-4.9v55.7h-2c.7,0,1.4.1,2,.2,4.5.4,8.7.8,13,.7,49.8,0,99.7-.7,149.4,0,6.8.1,13.7,6,20.1,10.1,3.2,2.1-.6,7.2-1.3,8.7-6.4,14.5.6,43.1,15.7,61,11,13.1,32.6,28.1,50,21.9,3.6-1.3,6.2-3.2,8-4.7-.5,3.9-3.4,28.4,14,48.3,14.8,17,38.7,24,61.7,18.2,2.2,8,7.7,23.7,22,37.6,6.9,6.7,20,19.4,38.6,20.4,12,.7,22.7-3.7,39.7-10.7,6.2-2.6,11.3-5,14.8-6.8,19.8,17.6,41.9,24.9,67.7,12.9,5.9-2.7,17.9-8.3,26.3-21.6,8.2-13.1,8.4-26.2,8.2-31.6,4.7,1.3,12.2,3,21.5,3.2,9.5.2,30.9.6,46.1-14,9.1-8.7,12.7-19.6,14-23.6,5-15.8.7-25.1,7-30,5.7-4.4,11.5-.9,23.2.8,20.9,3,45.3-19,46.6-41.8,1.1-18.7,0-22.6-12.2-41.3,7.6-10,15-18.7,30.3-18.2,51.5,1.5,103.1,1.7,154.6,2.4,2.7,0,5.4,0,7.9,0v-56.8c-4.8-.3-9.6-.6-14.3-.5-60.6.5-121.1.8-181.6,1.9-23.1.4-43,23.5-44,49.2-.2,3.7,0,7.5,0,13.9-6.3-5.5-11-9.1-15.3-13.3-32.8-31.5-65.7-63.1-98.4-94.8-25.6-24.8-51.1-49.5-76.5-74.5-19-18.8-35.5-20.7-56.7-4.6-12.9,9.8-24.8,20.9-37.3,31.2-3.2,2.6-6.8,4.8-10.4,6.8-16,8.7-20.2,7.7-34.1-9.4,25.3-21.6,50.2-42.8,75.2-63.9,6-5.1,12.4-9.8,18.9-14.3ZM312.3,695.6c.3,5.6-3.6,9.6-11,16.9-8,8-15.1,10.2-17.5,10.9-1.1.3-2,.5-2.6.6-2.8-1.7-9.7-6.2-11.1-13.6-2.8-14.6,17.1-32.1,30.5-28.4,5.8,1.6,11.2,7.4,11.6,13.7ZM416.2,751.2c-1.6,13.2-9.7,21.6-17.2,29.3-7.1,7.4-13.8,14.3-25,16.5-3.2.6-15.6,2.9-25.8-5-13.5-10.5-10.9-29.3-10.7-30,2.3-6,13.7-33.7,40.1-41.5,5.7-1.7,20-5.9,30,2.1,11,8.8,8.9,25.7,8.6,28.6ZM472.2,815.5c-2.8,14.7-17.7,29.5-33.9,28.4-.9,0-13.4-1.1-18.9-10.1-5.3-8.6-1.7-20.2-2.8-20.4-.8,0-2.8,5.6-1.5,6.4,1.6,1.1,7.3-6.2,20.4-18.2,12.8-11.8,16.1-12.9,19.3-12.9,6.6,0,12.2,5.1,15,9.7,4.3,7,2.9,14.4,2.4,17.1Z"/>
      </g>
      <path class="cls-4" d="M482,1071.4c-15.8,0-31.6-4.1-45.7-12.2L55.1,839.1c-28.2-16.3-45.7-46.7-45.7-79.2v-440.1c0-32.6,17.5-63,45.7-79.2L436.3,20.4c28.2-16.3,63.3-16.3,91.5,0l381.2,220.1c28.2,16.3,45.8,46.7,45.8,79.2v440.1c0,32.6-17.5,62.9-45.8,79.2l-381.2,220.1c-14.1,8.1-29.9,12.2-45.8,12.2ZM482,57.6c-7.3,0-14.6,1.9-21,5.6L79.8,283.3c-13,7.5-21,21.5-21,36.4v440.1c0,15,8.1,29,21,36.5l381.2,220.1c13,7.5,29.1,7.5,42.1,0l381.2-220.1c13-7.5,21-21.5,21-36.5v-440.1c0-15-8.1-29-21-36.4L503.1,63.2c-6.5-3.7-13.8-5.6-21-5.6Z"/>
      <line class="cls-1" x1="231" y1="472.1" x2="231" y2="459.3"/>
      <line class="cls-1" x1="231" y1="163.6" x2="231" y2="156.6"/>
    </g>
  </g>
</svg>